<?xml version="1.0" encoding="UTF-8" standalone="no"?>
<svg
   viewBox="0 0 448 512"
   version="1.1"
   id="svg1"
   sodipodi:docname="researchgate3.svg"
   xml:space="preserve"
   inkscape:version="1.3.2 (091e20e, 2023-11-25)"
   xmlns:inkscape="http://www.inkscape.org/namespaces/inkscape"
   xmlns:sodipodi="http://sodipodi.sourceforge.net/DTD/sodipodi-0.dtd"
   xmlns="http://www.w3.org/2000/svg"
   xmlns:svg="http://www.w3.org/2000/svg"><defs
     id="defs1"><inkscape:path-effect
       effect="fillet_chamfer"
       id="path-effect1"
       is_visible="true"
       lpeversion="1"
       nodesatellites_param="F,0,0,1,0,32.817176,0,1 @ F,0,1,1,0,32.817176,0,1 @ F,0,1,1,0,32.817176,0,1 @ F,0,1,1,0,32.817176,0,1 | F,0,0,1,0,0,0,1 @ F,0,0,1,0,0,0,1 @ F,0,0,1,0,0,0,1 @ F,0,0,1,0,0,0,1 @ F,0,0,1,0,0,0,1 @ F,0,0,1,0,0,0,1 @ F,0,0,1,0,0,0,1 @ F,0,0,1,0,0,0,1 @ F,0,0,1,0,0,0,1 @ F,0,0,1,0,0,0,1 @ F,0,0,1,0,0,0,1 @ F,0,0,1,0,0,0,1 @ F,0,0,1,0,0,0,1 @ F,0,0,1,0,0,0,1 @ F,0,0,1,0,0,0,1 @ F,0,0,1,0,0,0,1 @ F,0,0,1,0,0,0,1 @ F,0,0,1,0,0,0,1 @ F,0,0,1,0,0,0,1 | F,0,0,1,0,0,0,1 @ F,0,0,1,0,0,0,1 @ F,0,0,1,0,0,0,1 @ F,0,0,1,0,0,0,1 @ F,0,0,1,0,0,0,1 @ F,0,0,1,0,0,0,1 @ F,0,0,1,0,0,0,1 @ F,0,0,1,0,0,0,1 @ F,0,0,1,0,0,0,1 @ F,0,0,1,0,0,0,1 @ F,0,0,1,0,0,0,1 @ F,0,0,1,0,0,0,1 @ F,0,0,1,0,0,0,1 @ F,0,0,1,0,0,0,1 | F,0,0,1,0,0,0,1 @ F,0,0,1,0,0,0,1 @ F,0,0,1,0,0,0,1 @ F,0,0,1,0,0,0,1 @ F,0,0,1,0,0,0,1"
       radius="0"
       unit="px"
       method="auto"
       mode="F"
       chamfer_steps="1"
       flexible="false"
       use_knot_distance="true"
       apply_no_radius="true"
       apply_with_radius="true"
       only_selected="false"
       hide_knots="false" /></defs><sodipodi:namedview
     id="namedview1"
     pagecolor="#ffffff"
     bordercolor="#000000"
     borderopacity="0.25"
     inkscape:showpageshadow="2"
     inkscape:pageopacity="0.0"
     inkscape:pagecheckerboard="0"
     inkscape:deskcolor="#d1d1d1"
     inkscape:zoom="1.2078864"
     inkscape:cx="135.36041"
     inkscape:cy="301.76679"
     inkscape:window-width="1512"
     inkscape:window-height="916"
     inkscape:window-x="0"
     inkscape:window-y="38"
     inkscape:window-maximized="1"
     inkscape:current-layer="svg1" /><!--!Font Awesome Free 6.5.2 by @fontawesome - https://fontawesome.com License - https://fontawesome.com/license/free Copyright 2024 Fonticons, Inc.--><path
     fill="#f4f4f5"
     d="M 0,64.817176 V 447.18282 A 32.817176,32.817176 45 0 0 32.817176,480 H 415.18282 A 32.817176,32.817176 135 0 0 448,447.18282 L 448,64.817176 A 32.817176,32.817176 45 0 0 415.18282,32 H 32.817176 A 32.817176,32.817176 135 0 0 0,64.817176 Z M 262.2,366.4 c -6.6,3 -33.2,6 -50,-14.2 -9.2,-10.6 -25.3,-33.3 -42.2,-63.6 -8.9,0 -14.7,0 -21.4,-0.6 v 46.4 c 0,23.5 6,21.2 25.8,23.9 v 8.1 c -6.9,-0.3 -23.1,-0.8 -35.6,-0.8 -13.1,0 -26.1,0.6 -33.6,0.8 v -8.1 c 15.5,-2.9 22,-1.3 22,-23.9 V 225 c 0,-22.6 -6.4,-21 -22,-23.9 V 193 c 25.8,1 53.1,-0.6 70.9,-0.6 31.7,0 55.9,14.4 55.9,45.6 0,21.1 -16.7,42.2 -39.2,47.5 13.6,24.2 30,45.6 42.2,58.9 7.2,7.8 17.2,14.7 27.2,14.7 z m 22.9,-135 c -23.3,0 -32.2,-15.7 -32.2,-32.2 V 167 c 0,-12.2 8.8,-30.4 34,-30.4 25.2,0 30.4,17.9 30.4,17.9 l -10.7,7.2 c 0,0 -5.5,-12.5 -19.7,-12.5 -7.9,0 -19.7,7.3 -19.7,19.7 v 26.8 c 0,13.4 6.6,23.3 17.9,23.3 14.1,0 21.5,-10.9 21.5,-26.8 h -17.9 v -10.7 h 30.4 c 0,20.5 4.7,49.9 -34,49.9 z m -116.5,44.7 c -9.4,0 -13.6,-0.3 -20,-0.8 v -69.7 c 6.4,-0.6 15,-0.6 22.5,-0.6 23.3,0 37.2,12.2 37.2,34.5 0,21.9 -15,36.6 -39.7,36.6 z"
     id="path1"
     inkscape:path-effect="#path-effect1"
     inkscape:original-d="M0 32v448h448V32H0zm262.2 334.4c-6.6 3-33.2 6-50-14.2-9.2-10.6-25.3-33.3-42.2-63.6-8.9 0-14.7 0-21.4-.6v46.4c0 23.5 6 21.2 25.8 23.9v8.1c-6.9-.3-23.1-.8-35.6-.8-13.1 0-26.1 .6-33.6 .8v-8.1c15.5-2.9 22-1.3 22-23.9V225c0-22.6-6.4-21-22-23.9V193c25.8 1 53.1-.6 70.9-.6 31.7 0 55.9 14.4 55.9 45.6 0 21.1-16.7 42.2-39.2 47.5 13.6 24.2 30 45.6 42.2 58.9 7.2 7.8 17.2 14.7 27.2 14.7v7.3zm22.9-135c-23.3 0-32.2-15.7-32.2-32.2V167c0-12.2 8.8-30.4 34-30.4s30.4 17.9 30.4 17.9l-10.7 7.2s-5.5-12.5-19.7-12.5c-7.9 0-19.7 7.3-19.7 19.7v26.8c0 13.4 6.6 23.3 17.9 23.3 14.1 0 21.5-10.9 21.5-26.8h-17.9v-10.7h30.4c0 20.5 4.7 49.9-34 49.9zm-116.5 44.7c-9.4 0-13.6-.3-20-.8v-69.7c6.4-.6 15-.6 22.5-.6 23.3 0 37.2 12.2 37.2 34.5 0 21.9-15 36.6-39.7 36.6z" /><g
     inkscape:groupmode="layer"
     id="layer1"
     inkscape:label="Layer 1"
     style="display:none"><path
       d="M 416.16714,32.077693 H 32.067143 c -17.6,0 -31.89999992,14.5 -31.89999992,32.3 V 447.7777 c 0,17.8 14.29999992,32.3 31.89999992,32.3 H 416.16714 c 17.6,0 32,-14.5 32,-32.3 V 64.377693 c 0,-17.8 -14.4,-32.3 -32,-32.3 z m -280.6,384.000007 H 69.167143 v -213.8 h 66.499997 v 213.8 z m -33.19999,-243 c -21.300007,0 -38.500007,-17.3 -38.500007,-38.5 0,-21.20001 17.2,-38.500007 38.500007,-38.500007 21.19999,0 38.49999,17.299997 38.49999,38.500007 0,21.3 -17.2,38.5 -38.49999,38.5 z m 282.09999,243 h -66.4 v -104 c 0,-24.8 -0.5,-56.7 -34.5,-56.7 -34.6,0 -39.9,27 -39.9,54.9 v 105.8 h -66.4 v -213.8 h 63.7 v 29.2 h 0.9 c 8.9,-16.8 30.6,-34.5 62.9,-34.5 67.2,0 79.7,44.3 79.7,101.9 z"
       id="path1-2"
       style="display:inline" /></g></svg>
